<?xml version="1.0" encoding="utf-8"?>
<!-- Generator: Adobe Illustrator 23.0.1, SVG Export Plug-In . SVG Version: 6.00 Build 0)  -->
<svg version="1.1" id="Layer_1" xmlns="http://www.w3.org/2000/svg" xmlns:xlink="http://www.w3.org/1999/xlink" x="0px" y="0px"
	 viewBox="0 0 60 60" style="enable-background:new 0 0 60 60;" xml:space="preserve">
<style type="text/css">
	.st0{fill-rule:evenodd;clip-rule:evenodd;}
	.st1{fill:none;stroke:#000000;stroke-miterlimit:10;}
</style>
<g xmlns:sketch="http://www.bohemiancoding.com/sketch/ns">
	<title></title>
	<desc></desc>
	<g id="black">
		<g id="slice" transform="translate(-600.000000, 0.000000)">
		</g>
		<g id="linkedin" transform="translate(16.000000, 17.000000)">
			<path class="st0" d="M4.4,29.1V5.9h-7.1v23.3H4.4z M4.4-2.4c0-2-1.4-3.7-3.7-3.7s-3.7,1.5-3.7,3.7c0,2,1.4,3.7,3.7,3.7l0,0
				C3,1.3,4.4-0.3,4.4-2.4z M16.1,29.1V15.9c0-0.8,0-1.4,0.3-1.9c0.5-1.4,1.9-2.9,4.1-2.9c2.8,0,4.7,1.7,4.7,4.8v13.2h7.2V15.5
				c0-7.2-3.9-10.7-9-10.7c-4.2,0-6.1,2.4-7.1,3.9V5.8H9C9.1,8,9,29.1,9,29.1H16.1z"/>
		</g>
	</g>
</g>
<g>
	<ellipse class="st1" cx="29.8" cy="30.1" rx="29.7" ry="30"/>
</g>
</svg>
