<?xml version="1.0" encoding="utf-8"?>
<!-- Generator: Adobe Illustrator 23.0.1, SVG Export Plug-In . SVG Version: 6.00 Build 0)  -->
<svg version="1.1" id="Layer_1" xmlns:sketch="http://www.bohemiancoding.com/sketch/ns"
	 xmlns="http://www.w3.org/2000/svg" xmlns:xlink="http://www.w3.org/1999/xlink" x="0px" y="0px" viewBox="0 0 16 16"
	 style="enable-background:new 0 0 16 16;" xml:space="preserve">
<style type="text/css">
	.st0{fill-rule:evenodd;clip-rule:evenodd;}
	.st1{fill-rule:evenodd;clip-rule:evenodd;fill:none;stroke:#000000;stroke-width:0.25;stroke-miterlimit:10;}
</style>
<title></title>
<g>
	<g id="Group" transform="translate(-336.000000, 0.000000)">
		<path id="Shape" class="st0" d="M345.3,8.4l3.5,3c-0.1,0.1-0.3,0.2-0.5,0.2h-8.6c-0.2,0-0.4-0.1-0.5-0.2l3.5-3l1.2,1.1L345.3,8.4z
			 M344,8.8l-4.8-4.1c0.1-0.1,0.3-0.2,0.5-0.2h8.6c0.2,0,0.4,0.1,0.5,0.2L344,8.8z M349,11l-3.5-2.9l3.5-3V11L349,11z M339,11V5.1
			l3.5,3L339,11L339,11z"/>
	</g>
</g>
<ellipse class="st1" cx="8" cy="8" rx="7.9" ry="7.9"/>
</svg>
