<?xml version="1.0" encoding="utf-8"?>
<!-- Generator: Adobe Illustrator 23.0.1, SVG Export Plug-In . SVG Version: 6.00 Build 0)  -->
<svg version="1.1" id="Layer_1" xmlns="http://www.w3.org/2000/svg" xmlns:xlink="http://www.w3.org/1999/xlink" x="0px" y="0px"
	 viewBox="0 0 56.7 56.7" style="enable-background:new 0 0 56.7 56.7;" xml:space="preserve">
<style type="text/css">
	.st0{fill:none;stroke:#000000;stroke-miterlimit:10;}
</style>
<path d="M8.8,22.6l1.5,2c0,0,3.2-2.5,4.2-1.2c1.1,1.2,5.1,16.3,6.4,19c1.2,2.4,4.4,5.6,7.9,3.3c3.5-2.3,15.3-12.3,17.4-24.2
	c2.1-11.9-14.2-9.4-15.9,1c4.3-2.6,6.6,1.1,4.4,5.2c-2.2,4.1-4.2,6.8-5.3,6.8c-1,0-1.9-2.7-3.1-7.6c-1.2-5-1.2-13.9-6.4-12.9
	C15.2,14.9,8.8,22.6,8.8,22.6z"/>
<ellipse class="st0" cx="28.4" cy="28.3" rx="28" ry="28"/>
</svg>
